# xmcd CD database file
#
# Track frame offsets:
#	150
#	35038
#	85940
#	132993
#	180800
#	223833
#	260120
#	289289
#
# Disc length: 4223 seconds
#
# Revision: 0
# Processed by: cddbd v1.5.2PL0 Copyright (c) Steve Scherf et al.
# Submitted via: CDex 1.51
#
DISCID=7a107d08
DTITLE=Larry Carlton with special guest Robben Ford - Live In Tokyo
DYEAR=2007
DGENRE=Jazz
TTITLE0=That Road (Robben Ford)
TTITLE1=Burnable (Larry Carlton)
TTITLE2=Cold Gold (Larry Carlton)
TTITLE3=Rio Samba (Larry Carlton)
TTITLE4=Derrick's Blues (Robben Ford)
TTITLE5=Two Bad (Larry Carlton)
TTITLE6=Talk To Your Daughter (Jb Lenoir - Alex Atkins)
TTITLE7=Too Much (Gabriel Ford) 
EXTD=YEAR: 2007
EXTT0=
EXTT1=
EXTT2=
EXTT3=
EXTT4=
EXTT5=
EXTT6=
EXTT7=
PLAYORDER=
